solid stackable
facet normal 0.707106781186547 -1.61453753688943e-17 0.707106781186548
outer loop
vertex 100.0 -3.0 50.0
vertex 95.0 -1.0 55.0
vertex 95.0 -3.0 55.0
endloop
endfacet
facet normal 0.707106781186547 -1.61453753688943e-17 0.707106781186548
outer loop
vertex 95.0 -1.0 55.0
vertex 100.0 -3.0 50.0
vertex 100.0 -1.0 50.0
endloop
endfacet
facet normal 0.707106781186547 -1.61453753688943e-17 0.707106781186548
outer loop
vertex 100.0 -1.0 50.0
vertex 100.0 -3.0 50.0
vertex 103.0 0.0 47.0
endloop
endfacet
facet normal 0.707106781186547 -1.61453753688943e-17 0.707106781186548
outer loop
vertex 100.0 -1.0 50.0
vertex 103.0 0.0 47.0
vertex 100.0 5.0 50.0
endloop
endfacet
facet normal 0.707106781186547 -1.61453753688943e-17 0.707106781186548
outer loop
vertex 100.0 5.0 50.0
vertex 103.0 0.0 47.0
vertex 121.464466094067 5.0 28.5355339059327
endloop
endfacet
facet normal 0.707106781186547 -1.61453753688943e-17 0.707106781186548
outer loop
vertex 121.464466094067 5.0 28.5355339059327
vertex 103.0 0.0 47.0
vertex 125.0 0.0 25.0
endloop
endfacet
facet normal 0.707106781186547 -1.61453753688943e-17 0.707106781186548
outer loop
vertex 121.464466094067 5.0 28.5355339059327
vertex 125.0 0.0 25.0
vertex 121.464466094067 75.0 28.5355339059327
endloop
endfacet
facet normal 0.707106781186547 -1.61453753688943e-17 0.707106781186548
outer loop
vertex 100.0 75.0 50.0
vertex 103.0 80.0 47.0
vertex 100.0 81.0 50.0
endloop
endfacet
facet normal 0.707106781186547 -1.61453753688943e-17 0.707106781186548
outer loop
vertex 103.0 80.0 47.0
vertex 100.0 75.0 50.0
vertex 121.464466094067 75.0 28.5355339059327
endloop
endfacet
facet normal 0.707106781186547 -1.61453753688943e-17 0.707106781186548
outer loop
vertex 100.0 81.0 50.0
vertex 103.0 80.0 47.0
vertex 100.0 83.0 50.0
endloop
endfacet
facet normal 0.707106781186547 -1.61453753688943e-17 0.707106781186548
outer loop
vertex 103.0 80.0 47.0
vertex 121.464466094067 75.0 28.5355339059327
vertex 125.0 80.0 25.0
endloop
endfacet
facet normal 0.707106781186547 -1.61453753688943e-17 0.707106781186548
outer loop
vertex 125.0 80.0 25.0
vertex 121.464466094067 75.0 28.5355339059327
vertex 125.0 0.0 25.0
endloop
endfacet
facet normal 0.707106781186547 -1.61453753688943e-17 0.707106781186548
outer loop
vertex 100.0 81.0 50.0
vertex 95.0 83.0 55.0
vertex 95.0 81.0 55.0
endloop
endfacet
facet normal 0.707106781186547 -1.61453753688943e-17 0.707106781186548
outer loop
vertex 95.0 83.0 55.0
vertex 100.0 81.0 50.0
vertex 100.0 83.0 50.0
endloop
endfacet
facet normal 7.85785101492317e-17 6.25395792500542e-17 1.0
outer loop
vertex 97.7087240444448 5.0 5.0
vertex 5.0 55.0 5.0
vertex 5.0 5.0 5.0
endloop
endfacet
facet normal 7.85785101492317e-17 6.25395792500542e-17 1.0
outer loop
vertex 5.0 55.0 5.0
vertex 97.7087240444448 5.0 5.0
vertex 5.0 75.0 5.0
endloop
endfacet
facet normal 7.85785101492317e-17 6.25395792500542e-17 1.0
outer loop
vertex 5.0 75.0 5.0
vertex 97.7087240444448 5.0 5.0
vertex 97.7087240444448 75.0 4.99999999999999
endloop
endfacet
facet normal 7.85785101492317e-17 6.25395792500542e-17 1.0
outer loop
vertex 97.7087240444448 75.0 4.99999999999999
vertex 97.7087240444448 5.0 5.0
vertex 97.7087240444448 55.0 4.99999999999999
endloop
endfacet
facet normal -0.703806563506175 1.94320881052512e-16 0.710391667438201
outer loop
vertex 121.464466094067 5.0 28.5355339059327
vertex 97.7087240444448 55.0 4.99999999999999
vertex 97.7087240444448 5.0 5.0
endloop
endfacet
facet normal -0.703806563506175 1.94320881052512e-16 0.710391667438201
outer loop
vertex 97.7087240444448 55.0 4.99999999999999
vertex 121.464466094067 5.0 28.5355339059327
vertex 97.7087240444448 75.0 4.99999999999999
endloop
endfacet
facet normal -0.703806563506175 1.94320881052512e-16 0.710391667438201
outer loop
vertex 97.7087240444448 75.0 4.99999999999999
vertex 121.464466094067 5.0 28.5355339059327
vertex 121.464466094067 75.0 28.5355339059327
endloop
endfacet
facet normal -0.0 -0.0 1.0
outer loop
vertex -2.99999999999999 -3.0 55.0
vertex -1.0 -1.0 55.0
vertex -2.99999999999999 83.0 55.0
endloop
endfacet
facet normal -0.0 -0.0 1.0
outer loop
vertex -1.0 -1.0 55.0
vertex -2.99999999999999 -3.0 55.0
vertex 95.0 -3.0 55.0
endloop
endfacet
facet normal -0.0 -0.0 1.0
outer loop
vertex -1.0 -1.0 55.0
vertex 95.0 -3.0 55.0
vertex 95.0 -1.0 55.0
endloop
endfacet
facet normal -0.0 -0.0 1.0
outer loop
vertex -2.99999999999999 83.0 55.0
vertex -1.0 81.0 55.0
vertex 95.0 83.0 55.0
endloop
endfacet
facet normal -0.0 -0.0 1.0
outer loop
vertex -1.0 81.0 55.0
vertex -2.99999999999999 83.0 55.0
vertex -1.0 -1.0 55.0
endloop
endfacet
facet normal -0.0 -0.0 1.0
outer loop
vertex 95.0 83.0 55.0
vertex -1.0 81.0 55.0
vertex 95.0 81.0 55.0
endloop
endfacet
facet normal -1.0 -0.0 -0.0
outer loop
vertex -2.99999999999999 83.0 55.0
vertex -2.99999999999999 -3.0 50.0
vertex -2.99999999999999 -3.0 55.0
endloop
endfacet
facet normal -1.0 -0.0 -0.0
outer loop
vertex -2.99999999999999 -3.0 50.0
vertex -2.99999999999999 83.0 55.0
vertex -2.99999999999999 83.0 50.0
endloop
endfacet
facet normal 0.0 -1.0 0.0
outer loop
vertex 95.0 81.0 55.0
vertex -1.0 81.0 50.0
vertex 100.0 81.0 50.0
endloop
endfacet
facet normal 0.0 -1.0 0.0
outer loop
vertex -1.0 81.0 50.0
vertex 95.0 81.0 55.0
vertex -1.0 81.0 55.0
endloop
endfacet
facet normal -0.0 1.0 -0.0
outer loop
vertex -2.99999999999999 83.0 55.0
vertex 100.0 83.0 50.0
vertex -2.99999999999999 83.0 50.0
endloop
endfacet
facet normal -0.0 1.0 -0.0
outer loop
vertex 100.0 83.0 50.0
vertex -2.99999999999999 83.0 55.0
vertex 95.0 83.0 55.0
endloop
endfacet
facet normal 0.0 -1.0 0.0
outer loop
vertex 95.0 -3.0 55.0
vertex -2.99999999999999 -3.0 50.0
vertex 100.0 -3.0 50.0
endloop
endfacet
facet normal 0.0 -1.0 0.0
outer loop
vertex -2.99999999999999 -3.0 50.0
vertex 95.0 -3.0 55.0
vertex -2.99999999999999 -3.0 55.0
endloop
endfacet
facet normal -0.0 -0.0 1.0
outer loop
vertex -1.0 -1.0 50.0
vertex 5.0 5.0 50.0
vertex -1.0 81.0 50.0
endloop
endfacet
facet normal -0.0 -0.0 1.0
outer loop
vertex 5.0 5.0 50.0
vertex -1.0 -1.0 50.0
vertex 100.0 -1.0 50.0
endloop
endfacet
facet normal -0.0 -0.0 1.0
outer loop
vertex 5.0 5.0 50.0
vertex 100.0 -1.0 50.0
vertex 100.0 5.0 50.0
endloop
endfacet
facet normal -0.0 -0.0 1.0
outer loop
vertex -1.0 81.0 50.0
vertex 5.0 75.0 50.0
vertex 100.0 81.0 50.0
endloop
endfacet
facet normal -0.0 -0.0 1.0
outer loop
vertex 5.0 75.0 50.0
vertex -1.0 81.0 50.0
vertex 5.0 5.0 50.0
endloop
endfacet
facet normal -0.0 -0.0 1.0
outer loop
vertex 100.0 81.0 50.0
vertex 5.0 75.0 50.0
vertex 100.0 75.0 50.0
endloop
endfacet
facet normal 0.0 -1.0 0.0
outer loop
vertex 121.464466094067 75.0 28.5355339059327
vertex 5.0 75.0 5.0
vertex 97.7087240444448 75.0 4.99999999999999
endloop
endfacet
facet normal 0.0 -1.0 0.0
outer loop
vertex 5.0 75.0 5.0
vertex 121.464466094067 75.0 28.5355339059327
vertex 5.0 75.0 50.0
endloop
endfacet
facet normal 0.0 -1.0 0.0
outer loop
vertex 5.0 75.0 50.0
vertex 121.464466094067 75.0 28.5355339059327
vertex 100.0 75.0 50.0
endloop
endfacet
facet normal -2.01849279095336e-18 -1.0 2.86070327809535e-17
outer loop
vertex 125.0 0.0 25.0
vertex 80.0 -2.44929359829471e-15 0.0
vertex 100.0 0.0 0.0
endloop
endfacet
facet normal -2.01849279095336e-18 -1.0 2.86070327809535e-17
outer loop
vertex 80.0 -2.44929359829471e-15 0.0
vertex 125.0 0.0 25.0
vertex 20.0 -1.22464679914735e-15 0.0
endloop
endfacet
facet normal -2.01849279095336e-18 -1.0 2.86070327809535e-17
outer loop
vertex 20.0 -1.22464679914735e-15 0.0
vertex 125.0 0.0 25.0
vertex 0.0 0.0 0.0
endloop
endfacet
facet normal -2.01849279095336e-18 -1.0 2.86070327809535e-17
outer loop
vertex 0.0 0.0 0.0
vertex 125.0 0.0 25.0
vertex 0.0 0.0 47.0
endloop
endfacet
facet normal -2.01849279095336e-18 -1.0 2.86070327809535e-17
outer loop
vertex 0.0 0.0 47.0
vertex 125.0 0.0 25.0
vertex 103.0 0.0 47.0
endloop
endfacet
facet normal -2.01849279095336e-18 -1.0 2.86070327809535e-17
outer loop
vertex 80.0 -2.44929359829471e-15 0.0
vertex 20.0 -1.22464679914735e-15 -0.2
vertex 80.0 -2.44929359829471e-15 -0.2
endloop
endfacet
facet normal -2.01849279095336e-18 -1.0 2.86070327809535e-17
outer loop
vertex 20.0 -1.22464679914735e-15 -0.2
vertex 80.0 -2.44929359829471e-15 0.0
vertex 20.0 -1.22464679914735e-15 0.0
endloop
endfacet
facet normal -6.18398658428885e-18 1.0 -2.43364873154863e-19
outer loop
vertex 5.0 5.0 5.0
vertex 121.464466094067 5.0 28.5355339059327
vertex 97.7087240444448 5.0 5.0
endloop
endfacet
facet normal -6.18398658428885e-18 1.0 -2.43364873154863e-19
outer loop
vertex 121.464466094067 5.0 28.5355339059327
vertex 5.0 5.0 5.0
vertex 5.0 5.0 50.0
endloop
endfacet
facet normal -6.18398658428885e-18 1.0 -2.43364873154863e-19
outer loop
vertex 121.464466094067 5.0 28.5355339059327
vertex 5.0 5.0 50.0
vertex 100.0 5.0 50.0
endloop
endfacet
facet normal 1.85483877474321e-17 0.707106781186547 -0.707106781186549
outer loop
vertex 100.0 83.0 50.0
vertex 0.0 80.0 47.0
vertex -2.99999999999999 83.0 50.0
endloop
endfacet
facet normal 1.85483877474321e-17 0.707106781186547 -0.707106781186549
outer loop
vertex 0.0 80.0 47.0
vertex 100.0 83.0 50.0
vertex 103.0 80.0 47.0
endloop
endfacet
facet normal -0.707106781186549 -9.17803032259742e-19 -0.707106781186546
outer loop
vertex -2.99999999999999 83.0 50.0
vertex 0.0 0.0 47.0
vertex -2.99999999999999 -3.0 50.0
endloop
endfacet
facet normal -0.707106781186549 -9.17803032259742e-19 -0.707106781186546
outer loop
vertex 0.0 0.0 47.0
vertex -2.99999999999999 83.0 50.0
vertex 0.0 80.0 47.0
endloop
endfacet
facet normal 2.04700675591031e-17 -0.707106781186547 -0.707106781186548
outer loop
vertex 0.0 0.0 47.0
vertex 100.0 -3.0 50.0
vertex -2.99999999999999 -3.0 50.0
endloop
endfacet
facet normal 2.04700675591031e-17 -0.707106781186547 -0.707106781186548
outer loop
vertex 100.0 -3.0 50.0
vertex 0.0 0.0 47.0
vertex 103.0 0.0 47.0
endloop
endfacet
facet normal 0.0 1.0 0.0
outer loop
vertex -1.0 -1.0 55.0
vertex 100.0 -1.0 50.0
vertex -1.0 -1.0 50.0
endloop
endfacet
facet normal 0.0 1.0 0.0
outer loop
vertex 100.0 -1.0 50.0
vertex -1.0 -1.0 55.0
vertex 95.0 -1.0 55.0
endloop
endfacet
facet normal 1.0 0.0 0.0
outer loop
vertex -1.0 81.0 50.0
vertex -1.0 -1.0 55.0
vertex -1.0 -1.0 50.0
endloop
endfacet
facet normal 1.0 0.0 0.0
outer loop
vertex -1.0 -1.0 55.0
vertex -1.0 81.0 50.0
vertex -1.0 81.0 55.0
endloop
endfacet
facet normal -0.0 1.0 -0.0
outer loop
vertex 0.0 80.0 47.0
vertex 20.0 80.0 0.0
vertex 0.0 80.0 0.0
endloop
endfacet
facet normal -0.0 1.0 -0.0
outer loop
vertex 20.0 80.0 0.0
vertex 0.0 80.0 47.0
vertex 80.0 80.0 0.0
endloop
endfacet
facet normal -0.0 1.0 -0.0
outer loop
vertex 80.0 80.0 0.0
vertex 0.0 80.0 47.0
vertex 100.0 80.0 0.0
endloop
endfacet
facet normal -0.0 1.0 -0.0
outer loop
vertex 100.0 80.0 0.0
vertex 0.0 80.0 47.0
vertex 125.0 80.0 25.0
endloop
endfacet
facet normal -0.0 1.0 -0.0
outer loop
vertex 125.0 80.0 25.0
vertex 0.0 80.0 47.0
vertex 103.0 80.0 47.0
endloop
endfacet
facet normal -0.0 1.0 -0.0
outer loop
vertex 20.0 80.0 0.0
vertex 80.0 80.0 -0.2
vertex 20.0 80.0 -0.2
endloop
endfacet
facet normal -0.0 1.0 -0.0
outer loop
vertex 80.0 80.0 -0.2
vertex 20.0 80.0 0.0
vertex 80.0 80.0 0.0
endloop
endfacet
facet normal -0.0 -0.0 1.0
outer loop
vertex 105.17638090205 60.6814834742186 0.0
vertex 100.0 80.0 0.0
vertex 100.0 60.0 0.0
endloop
endfacet
facet normal -0.0 -0.0 1.0
outer loop
vertex 100.0 80.0 0.0
vertex 105.17638090205 60.6814834742186 0.0
vertex 100.0 100.0 0.0
endloop
endfacet
facet normal -0.0 -0.0 1.0
outer loop
vertex 100.0 100.0 0.0
vertex 105.17638090205 60.6814834742186 0.0
vertex 105.17638090205 99.3185165257813 0.0
endloop
endfacet
facet normal -0.0 -0.0 1.0
outer loop
vertex 105.17638090205 99.3185165257813 0.0
vertex 105.17638090205 60.6814834742186 0.0
vertex 110.0 62.6794919243112 0.0
endloop
endfacet
facet normal -0.0 -0.0 1.0
outer loop
vertex 105.17638090205 99.3185165257813 0.0
vertex 110.0 62.6794919243112 0.0
vertex 110.0 97.3205080756887 0.0
endloop
endfacet
facet normal -0.0 -0.0 1.0
outer loop
vertex 110.0 97.3205080756887 0.0
vertex 110.0 62.6794919243112 0.0
vertex 114.142135623731 65.857864376269 0.0
endloop
endfacet
facet normal -0.0 -0.0 1.0
outer loop
vertex 110.0 97.3205080756887 0.0
vertex 114.142135623731 65.857864376269 0.0
vertex 114.142135623731 94.1421356237309 0.0
endloop
endfacet
facet normal -0.0 -0.0 1.0
outer loop
vertex 114.142135623731 94.1421356237309 0.0
vertex 114.142135623731 65.857864376269 0.0
vertex 117.320508075689 70.0 0.0
endloop
endfacet
facet normal -0.0 -0.0 1.0
outer loop
vertex 114.142135623731 94.1421356237309 0.0
vertex 117.320508075689 70.0 0.0
vertex 117.320508075689 90.0 0.0
endloop
endfacet
facet normal -0.0 -0.0 1.0
outer loop
vertex 117.320508075689 90.0 0.0
vertex 117.320508075689 70.0 0.0
vertex 119.318516525781 85.1763809020504 0.0
endloop
endfacet
facet normal -0.0 -0.0 1.0
outer loop
vertex 119.318516525781 85.1763809020504 0.0
vertex 117.320508075689 70.0 0.0
vertex 119.318516525781 74.8236190979495 0.0
endloop
endfacet
facet normal -0.0 -0.0 1.0
outer loop
vertex 119.318516525781 85.1763809020504 0.0
vertex 119.318516525781 74.8236190979495 0.0
vertex 120.0 80.0 0.0
endloop
endfacet
facet normal -0.0 -0.0 1.0
outer loop
vertex 100.0 80.0 0.0
vertex 80.6814834742186 85.1763809020504 0.0
vertex 80.0 80.0 0.0
endloop
endfacet
facet normal -0.0 -0.0 1.0
outer loop
vertex 80.6814834742186 85.1763809020504 0.0
vertex 100.0 80.0 0.0
vertex 82.6794919243112 89.9999999999999 0.0
endloop
endfacet
facet normal -0.0 -0.0 1.0
outer loop
vertex 82.6794919243112 89.9999999999999 0.0
vertex 100.0 80.0 0.0
vertex 85.857864376269 94.1421356237309 0.0
endloop
endfacet
facet normal -0.0 -0.0 1.0
outer loop
vertex 85.857864376269 94.1421356237309 0.0
vertex 100.0 80.0 0.0
vertex 90.0 97.3205080756887 0.0
endloop
endfacet
facet normal -0.0 -0.0 1.0
outer loop
vertex 90.0 97.3205080756887 0.0
vertex 100.0 80.0 0.0
vertex 94.8236190979496 99.3185165257813 0.0
endloop
endfacet
facet normal -0.0 -0.0 1.0
outer loop
vertex 94.8236190979496 99.3185165257813 0.0
vertex 100.0 80.0 0.0
vertex 100.0 100.0 0.0
endloop
endfacet
facet normal 0.707106781186547 0.0 -0.707106781186547
outer loop
vertex 100.0 20.0 0.0
vertex 125.0 0.0 25.0
vertex 100.0 0.0 0.0
endloop
endfacet
facet normal 0.707106781186547 0.0 -0.707106781186547
outer loop
vertex 125.0 0.0 25.0
vertex 100.0 20.0 0.0
vertex 125.0 80.0 25.0
endloop
endfacet
facet normal 0.707106781186547 0.0 -0.707106781186547
outer loop
vertex 125.0 80.0 25.0
vertex 100.0 20.0 0.0
vertex 100.0 60.0 0.0
endloop
endfacet
facet normal 0.707106781186547 0.0 -0.707106781186547
outer loop
vertex 125.0 80.0 25.0
vertex 100.0 60.0 0.0
vertex 100.0 80.0 0.0
endloop
endfacet
facet normal -0.0 -0.0 1.0
outer loop
vertex 80.6814834742186 -5.17638090205042 0.0
vertex 100.0 0.0 0.0
vertex 80.0 -2.44929359829471e-15 0.0
endloop
endfacet
facet normal -0.0 -0.0 1.0
outer loop
vertex 100.0 0.0 0.0
vertex 80.6814834742186 -5.17638090205042 0.0
vertex 82.6794919243112 -10.0 0.0
endloop
endfacet
facet normal -0.0 -0.0 1.0
outer loop
vertex 100.0 0.0 0.0
vertex 82.6794919243112 -10.0 0.0
vertex 85.857864376269 -14.142135623731 0.0
endloop
endfacet
facet normal -0.0 -0.0 1.0
outer loop
vertex 100.0 0.0 0.0
vertex 85.857864376269 -14.142135623731 0.0
vertex 90.0 -17.3205080756888 0.0
endloop
endfacet
facet normal -0.0 -0.0 1.0
outer loop
vertex 100.0 0.0 0.0
vertex 90.0 -17.3205080756888 0.0
vertex 94.8236190979496 -19.3185165257814 0.0
endloop
endfacet
facet normal -0.0 -0.0 1.0
outer loop
vertex 100.0 0.0 0.0
vertex 94.8236190979496 -19.3185165257814 0.0
vertex 100.0 -20.0 0.0
endloop
endfacet
facet normal -0.0 -0.0 1.0
outer loop
vertex 100.0 0.0 0.0
vertex 100.0 -20.0 0.0
vertex 105.17638090205 -19.3185165257814 0.0
endloop
endfacet
facet normal -0.0 -0.0 1.0
outer loop
vertex 100.0 0.0 0.0
vertex 105.17638090205 -19.3185165257814 0.0
vertex 100.0 20.0 0.0
endloop
endfacet
facet normal -0.0 -0.0 1.0
outer loop
vertex 100.0 20.0 0.0
vertex 105.17638090205 -19.3185165257814 0.0
vertex 105.17638090205 19.3185165257814 0.0
endloop
endfacet
facet normal -0.0 -0.0 1.0
outer loop
vertex 105.17638090205 19.3185165257814 0.0
vertex 105.17638090205 -19.3185165257814 0.0
vertex 110.0 -17.3205080756888 0.0
endloop
endfacet
facet normal -0.0 -0.0 1.0
outer loop
vertex 105.17638090205 19.3185165257814 0.0
vertex 110.0 -17.3205080756888 0.0
vertex 110.0 17.3205080756888 0.0
endloop
endfacet
facet normal -0.0 -0.0 1.0
outer loop
vertex 110.0 17.3205080756888 0.0
vertex 110.0 -17.3205080756888 0.0
vertex 114.142135623731 14.142135623731 0.0
endloop
endfacet
facet normal -0.0 -0.0 1.0
outer loop
vertex 114.142135623731 14.142135623731 0.0
vertex 110.0 -17.3205080756888 0.0
vertex 114.142135623731 -14.142135623731 0.0
endloop
endfacet
facet normal -0.0 -0.0 1.0
outer loop
vertex 114.142135623731 14.142135623731 0.0
vertex 114.142135623731 -14.142135623731 0.0
vertex 117.320508075689 -10.0 0.0
endloop
endfacet
facet normal -0.0 -0.0 1.0
outer loop
vertex 114.142135623731 14.142135623731 0.0
vertex 117.320508075689 -10.0 0.0
vertex 117.320508075689 10.0 0.0
endloop
endfacet
facet normal -0.0 -0.0 1.0
outer loop
vertex 117.320508075689 10.0 0.0
vertex 117.320508075689 -10.0 0.0
vertex 119.318516525781 -5.17638090205042 0.0
endloop
endfacet
facet normal -0.0 -0.0 1.0
outer loop
vertex 117.320508075689 10.0 0.0
vertex 119.318516525781 -5.17638090205042 0.0
vertex 119.318516525781 5.17638090205043 0.0
endloop
endfacet
facet normal -0.0 -0.0 1.0
outer loop
vertex 119.318516525781 5.17638090205043 0.0
vertex 119.318516525781 -5.17638090205042 0.0
vertex 120.0 0.0 0.0
endloop
endfacet
facet normal -0.0 -0.0 1.0
outer loop
vertex 5.17638090205041 -19.3185165257814 0.0
vertex 0.0 0.0 0.0
vertex 0.0 -20.0 0.0
endloop
endfacet
facet normal -0.0 -0.0 1.0
outer loop
vertex 0.0 0.0 0.0
vertex 5.17638090205041 -19.3185165257814 0.0
vertex 20.0 -1.22464679914735e-15 0.0
endloop
endfacet
facet normal -0.0 -0.0 1.0
outer loop
vertex 20.0 -1.22464679914735e-15 0.0
vertex 5.17638090205041 -19.3185165257814 0.0
vertex 10.0 -17.3205080756888 0.0
endloop
endfacet
facet normal -0.0 -0.0 1.0
outer loop
vertex 20.0 -1.22464679914735e-15 0.0
vertex 10.0 -17.3205080756888 0.0
vertex 14.1421356237309 -14.1421356237309 0.0
endloop
endfacet
facet normal -0.0 -0.0 1.0
outer loop
vertex 20.0 -1.22464679914735e-15 0.0
vertex 14.1421356237309 -14.1421356237309 0.0
vertex 17.3205080756888 -10.0 0.0
endloop
endfacet
facet normal -0.0 -0.0 1.0
outer loop
vertex 20.0 -1.22464679914735e-15 0.0
vertex 17.3205080756888 -10.0 0.0
vertex 19.3185165257814 -5.17638090205042 0.0
endloop
endfacet
facet normal -0.0 -0.0 1.0
outer loop
vertex -19.3185165257814 -5.17638090205041 0.0
vertex -19.3185165257814 5.17638090205043 0.0
vertex -20.0 3.67394039744206e-15 0.0
endloop
endfacet
facet normal -0.0 -0.0 1.0
outer loop
vertex -19.3185165257814 5.17638090205043 0.0
vertex -19.3185165257814 -5.17638090205041 0.0
vertex -17.3205080756888 -9.99999999999998 0.0
endloop
endfacet
facet normal -0.0 -0.0 1.0
outer loop
vertex -19.3185165257814 5.17638090205043 0.0
vertex -17.3205080756888 -9.99999999999998 0.0
vertex -17.3205080756888 10.0 0.0
endloop
endfacet
facet normal -0.0 -0.0 1.0
outer loop
vertex -17.3205080756888 10.0 0.0
vertex -17.3205080756888 -9.99999999999998 0.0
vertex -14.142135623731 -14.1421356237309 0.0
endloop
endfacet
facet normal -0.0 -0.0 1.0
outer loop
vertex -17.3205080756888 10.0 0.0
vertex -14.142135623731 -14.1421356237309 0.0
vertex -14.1421356237309 14.142135623731 0.0
endloop
endfacet
facet normal -0.0 -0.0 1.0
outer loop
vertex -14.1421356237309 14.142135623731 0.0
vertex -14.142135623731 -14.1421356237309 0.0
vertex -10.0 -17.3205080756888 0.0
endloop
endfacet
facet normal -0.0 -0.0 1.0
outer loop
vertex -14.1421356237309 14.142135623731 0.0
vertex -10.0 -17.3205080756888 0.0
vertex -9.99999999999999 17.3205080756888 0.0
endloop
endfacet
facet normal -0.0 -0.0 1.0
outer loop
vertex -9.99999999999999 17.3205080756888 0.0
vertex -10.0 -17.3205080756888 0.0
vertex -5.17638090205043 -19.3185165257814 0.0
endloop
endfacet
facet normal -0.0 -0.0 1.0
outer loop
vertex -9.99999999999999 17.3205080756888 0.0
vertex -5.17638090205043 -19.3185165257814 0.0
vertex -5.17638090205041 19.3185165257814 0.0
endloop
endfacet
facet normal -0.0 -0.0 1.0
outer loop
vertex -5.17638090205041 19.3185165257814 0.0
vertex -5.17638090205043 -19.3185165257814 0.0
vertex 0.0 -20.0 0.0
endloop
endfacet
facet normal -0.0 -0.0 1.0
outer loop
vertex -5.17638090205041 19.3185165257814 0.0
vertex 0.0 -20.0 0.0
vertex 0.0 0.0 0.0
endloop
endfacet
facet normal -0.0 -0.0 1.0
outer loop
vertex -5.17638090205041 19.3185165257814 0.0
vertex 0.0 0.0 0.0
vertex 2.44929359829471e-15 20.0 0.0
endloop
endfacet
facet normal -0.0 -0.0 1.0
outer loop
vertex -19.3185165257814 74.8236190979495 0.0
vertex -19.3185165257814 85.1763809020504 0.0
vertex -20.0 80.0 0.0
endloop
endfacet
facet normal -0.0 -0.0 1.0
outer loop
vertex -19.3185165257814 85.1763809020504 0.0
vertex -19.3185165257814 74.8236190979495 0.0
vertex -17.3205080756888 70.0 0.0
endloop
endfacet
facet normal -0.0 -0.0 1.0
outer loop
vertex -19.3185165257814 85.1763809020504 0.0
vertex -17.3205080756888 70.0 0.0
vertex -17.3205080756888 90.0 0.0
endloop
endfacet
facet normal -0.0 -0.0 1.0
outer loop
vertex -17.3205080756888 90.0 0.0
vertex -17.3205080756888 70.0 0.0
vertex -14.1421356237309 65.857864376269 0.0
endloop
endfacet
facet normal -0.0 -0.0 1.0
outer loop
vertex -17.3205080756888 90.0 0.0
vertex -14.1421356237309 65.857864376269 0.0
vertex -14.1421356237309 94.1421356237309 0.0
endloop
endfacet
facet normal -0.0 -0.0 1.0
outer loop
vertex -14.1421356237309 94.1421356237309 0.0
vertex -14.1421356237309 65.857864376269 0.0
vertex -10.0 62.6794919243112 0.0
endloop
endfacet
facet normal -0.0 -0.0 1.0
outer loop
vertex -14.1421356237309 94.1421356237309 0.0
vertex -10.0 62.6794919243112 0.0
vertex -9.99999999999998 97.3205080756887 0.0
endloop
endfacet
facet normal -0.0 -0.0 1.0
outer loop
vertex -9.99999999999998 97.3205080756887 0.0
vertex -10.0 62.6794919243112 0.0
vertex -5.17638090205042 60.6814834742186 0.0
endloop
endfacet
facet normal -0.0 -0.0 1.0
outer loop
vertex -9.99999999999998 97.3205080756887 0.0
vertex -5.17638090205042 60.6814834742186 0.0
vertex -5.17638090205041 99.3185165257813 0.0
endloop
endfacet
facet normal -0.0 -0.0 1.0
outer loop
vertex -5.17638090205041 99.3185165257813 0.0
vertex -5.17638090205042 60.6814834742186 0.0
vertex -1.22464679914735e-15 60.0 0.0
endloop
endfacet
facet normal -0.0 -0.0 1.0
outer loop
vertex -5.17638090205041 99.3185165257813 0.0
vertex -1.22464679914735e-15 60.0 0.0
vertex 0.0 80.0 0.0
endloop
endfacet
facet normal -0.0 -0.0 1.0
outer loop
vertex -5.17638090205041 99.3185165257813 0.0
vertex 0.0 80.0 0.0
vertex 3.67394039744206e-15 100.0 0.0
endloop
endfacet
facet normal -0.0 -0.0 1.0
outer loop
vertex 3.67394039744206e-15 100.0 0.0
vertex 0.0 80.0 0.0
vertex 20.0 80.0 0.0
endloop
endfacet
facet normal -0.0 -0.0 1.0
outer loop
vertex 3.67394039744206e-15 100.0 0.0
vertex 20.0 80.0 0.0
vertex 5.17638090205043 99.3185165257813 0.0
endloop
endfacet
facet normal -0.0 -0.0 1.0
outer loop
vertex 5.17638090205043 99.3185165257813 0.0
vertex 20.0 80.0 0.0
vertex 10.0 97.3205080756887 0.0
endloop
endfacet
facet normal -0.0 -0.0 1.0
outer loop
vertex 10.0 97.3205080756887 0.0
vertex 20.0 80.0 0.0
vertex 14.142135623731 94.1421356237309 0.0
endloop
endfacet
facet normal -0.0 -0.0 1.0
outer loop
vertex 14.142135623731 94.1421356237309 0.0
vertex 20.0 80.0 0.0
vertex 17.3205080756888 89.9999999999999 0.0
endloop
endfacet
facet normal -0.0 -0.0 1.0
outer loop
vertex 17.3205080756888 89.9999999999999 0.0
vertex 20.0 80.0 0.0
vertex 19.3185165257814 85.1763809020504 0.0
endloop
endfacet
facet normal 1.0 -1.76247905159244e-17 -7.83324022929972e-18
outer loop
vertex 5.0 55.0 5.0
vertex 5.0 5.0 50.0
vertex 5.0 5.0 5.0
endloop
endfacet
facet normal 1.0 -1.76247905159244e-17 -7.83324022929972e-18
outer loop
vertex 5.0 5.0 50.0
vertex 5.0 55.0 5.0
vertex 5.0 75.0 50.0
endloop
endfacet
facet normal 1.0 -1.76247905159244e-17 -7.83324022929972e-18
outer loop
vertex 5.0 75.0 50.0
vertex 5.0 55.0 5.0
vertex 5.0 75.0 5.0
endloop
endfacet
facet normal -1.0 -1.83697019872103e-17 -8.69756616386521e-18
outer loop
vertex 0.0 80.0 47.0
vertex 0.0 0.0 0.0
vertex 0.0 0.0 47.0
endloop
endfacet
facet normal -1.0 -1.83697019872103e-17 -8.69756616386521e-18
outer loop
vertex 0.0 0.0 0.0
vertex 0.0 80.0 47.0
vertex 2.44929359829471e-15 20.0 0.0
endloop
endfacet
facet normal -1.0 -1.83697019872103e-17 -8.69756616386521e-18
outer loop
vertex 2.44929359829471e-15 20.0 0.0
vertex 0.0 80.0 47.0
vertex 2.44929359829471e-15 20.0 -0.2
endloop
endfacet
facet normal -1.0 -1.83697019872103e-17 -8.69756616386521e-18
outer loop
vertex 2.44929359829471e-15 20.0 -0.2
vertex 0.0 80.0 47.0
vertex -1.22464679914735e-15 60.0 0.0
endloop
endfacet
facet normal -1.0 -1.83697019872103e-17 -8.69756616386521e-18
outer loop
vertex -1.22464679914735e-15 60.0 0.0
vertex 0.0 80.0 47.0
vertex 0.0 80.0 0.0
endloop
endfacet
facet normal -1.0 -1.83697019872103e-17 -8.69756616386521e-18
outer loop
vertex -1.22464679914735e-15 60.0 -0.2
vertex 2.44929359829471e-15 20.0 -0.2
vertex -1.22464679914735e-15 60.0 0.0
endloop
endfacet
facet normal -0.130526192220051 0.99144486137381 -0.0
outer loop
vertex -5.17638090205041 19.3185165257814 0.0
vertex 2.44929359829471e-15 20.0 -0.2
vertex -5.17638090205041 19.3185165257814 -0.2
endloop
endfacet
facet normal -0.130526192220051 0.99144486137381 -0.0
outer loop
vertex 2.44929359829471e-15 20.0 -0.2
vertex -5.17638090205041 19.3185165257814 0.0
vertex 2.44929359829471e-15 20.0 0.0
endloop
endfacet
facet normal -0.382683432365089 0.923879532511287 0.0
outer loop
vertex -9.99999999999999 17.3205080756888 0.0
vertex -5.17638090205041 19.3185165257814 -0.2
vertex -9.99999999999999 17.3205080756888 -0.2
endloop
endfacet
facet normal -0.382683432365089 0.923879532511287 0.0
outer loop
vertex -5.17638090205041 19.3185165257814 -0.2
vertex -9.99999999999999 17.3205080756888 0.0
vertex -5.17638090205041 19.3185165257814 0.0
endloop
endfacet
facet normal -0.608761429008721 0.793353340291235 0.0
outer loop
vertex -14.1421356237309 14.142135623731 0.0
vertex -9.99999999999999 17.3205080756888 -0.2
vertex -14.1421356237309 14.142135623731 -0.2
endloop
endfacet
facet normal -0.608761429008721 0.793353340291235 0.0
outer loop
vertex -9.99999999999999 17.3205080756888 -0.2
vertex -14.1421356237309 14.142135623731 0.0
vertex -9.99999999999999 17.3205080756888 0.0
endloop
endfacet
facet normal -0.793353340291235 0.608761429008721 0.0
outer loop
vertex -14.1421356237309 14.142135623731 0.0
vertex -17.3205080756888 10.0 -0.2
vertex -17.3205080756888 10.0 0.0
endloop
endfacet
facet normal -0.793353340291235 0.608761429008721 0.0
outer loop
vertex -17.3205080756888 10.0 -0.2
vertex -14.1421356237309 14.142135623731 0.0
vertex -14.1421356237309 14.142135623731 -0.2
endloop
endfacet
facet normal -0.923879532511286 0.382683432365091 0.0
outer loop
vertex -17.3205080756888 10.0 0.0
vertex -19.3185165257814 5.17638090205043 -0.2
vertex -19.3185165257814 5.17638090205043 0.0
endloop
endfacet
facet normal -0.923879532511286 0.382683432365091 0.0
outer loop
vertex -19.3185165257814 5.17638090205043 -0.2
vertex -17.3205080756888 10.0 0.0
vertex -17.3205080756888 10.0 -0.2
endloop
endfacet
facet normal -0.99144486137381 0.130526192220052 0.0
outer loop
vertex -19.3185165257814 5.17638090205043 0.0
vertex -20.0 3.67394039744206e-15 -0.2
vertex -20.0 3.67394039744206e-15 0.0
endloop
endfacet
facet normal -0.99144486137381 0.130526192220052 0.0
outer loop
vertex -20.0 3.67394039744206e-15 -0.2
vertex -19.3185165257814 5.17638090205043 0.0
vertex -19.3185165257814 5.17638090205043 -0.2
endloop
endfacet
facet normal -0.991444861373811 -0.130526192220051 -0.0
outer loop
vertex -20.0 3.67394039744206e-15 0.0
vertex -19.3185165257814 -5.17638090205041 -0.2
vertex -19.3185165257814 -5.17638090205041 0.0
endloop
endfacet
facet normal -0.991444861373811 -0.130526192220051 -0.0
outer loop
vertex -19.3185165257814 -5.17638090205041 -0.2
vertex -20.0 3.67394039744206e-15 0.0
vertex -20.0 3.67394039744206e-15 -0.2
endloop
endfacet
facet normal -0.923879532511287 -0.382683432365089 -0.0
outer loop
vertex -19.3185165257814 -5.17638090205041 0.0
vertex -17.3205080756888 -9.99999999999998 -0.2
vertex -17.3205080756888 -9.99999999999998 0.0
endloop
endfacet
facet normal -0.923879532511287 -0.382683432365089 -0.0
outer loop
vertex -17.3205080756888 -9.99999999999998 -0.2
vertex -19.3185165257814 -5.17638090205041 0.0
vertex -19.3185165257814 -5.17638090205041 -0.2
endloop
endfacet
facet normal -0.793353340291235 -0.60876142900872 -0.0
outer loop
vertex -17.3205080756888 -9.99999999999998 0.0
vertex -14.142135623731 -14.1421356237309 -0.2
vertex -14.142135623731 -14.1421356237309 0.0
endloop
endfacet
facet normal -0.793353340291235 -0.60876142900872 -0.0
outer loop
vertex -14.142135623731 -14.1421356237309 -0.2
vertex -17.3205080756888 -9.99999999999998 0.0
vertex -17.3205080756888 -9.99999999999998 -0.2
endloop
endfacet
facet normal -0.608761429008721 -0.793353340291235 -0.0
outer loop
vertex -10.0 -17.3205080756888 0.0
vertex -14.142135623731 -14.1421356237309 -0.2
vertex -10.0 -17.3205080756888 -0.2
endloop
endfacet
facet normal -0.608761429008721 -0.793353340291235 -0.0
outer loop
vertex -14.142135623731 -14.1421356237309 -0.2
vertex -10.0 -17.3205080756888 0.0
vertex -14.142135623731 -14.1421356237309 0.0
endloop
endfacet
facet normal -0.382683432365091 -0.923879532511286 -0.0
outer loop
vertex -5.17638090205043 -19.3185165257814 0.0
vertex -10.0 -17.3205080756888 -0.2
vertex -5.17638090205043 -19.3185165257814 -0.2
endloop
endfacet
facet normal -0.382683432365091 -0.923879532511286 -0.0
outer loop
vertex -10.0 -17.3205080756888 -0.2
vertex -5.17638090205043 -19.3185165257814 0.0
vertex -10.0 -17.3205080756888 0.0
endloop
endfacet
facet normal -0.130526192220052 -0.99144486137381 -0.0
outer loop
vertex 0.0 -20.0 0.0
vertex -5.17638090205043 -19.3185165257814 -0.2
vertex 0.0 -20.0 -0.2
endloop
endfacet
facet normal -0.130526192220052 -0.99144486137381 -0.0
outer loop
vertex -5.17638090205043 -19.3185165257814 -0.2
vertex 0.0 -20.0 0.0
vertex -5.17638090205043 -19.3185165257814 0.0
endloop
endfacet
facet normal 0.130526192220052 -0.99144486137381 0.0
outer loop
vertex 5.17638090205041 -19.3185165257814 0.0
vertex 0.0 -20.0 -0.2
vertex 5.17638090205041 -19.3185165257814 -0.2
endloop
endfacet
facet normal 0.130526192220052 -0.99144486137381 0.0
outer loop
vertex 0.0 -20.0 -0.2
vertex 5.17638090205041 -19.3185165257814 0.0
vertex 0.0 -20.0 0.0
endloop
endfacet
facet normal 0.382683432365089 -0.923879532511287 0.0
outer loop
vertex 10.0 -17.3205080756888 0.0
vertex 5.17638090205041 -19.3185165257814 -0.2
vertex 10.0 -17.3205080756888 -0.2
endloop
endfacet
facet normal 0.382683432365089 -0.923879532511287 0.0
outer loop
vertex 5.17638090205041 -19.3185165257814 -0.2
vertex 10.0 -17.3205080756888 0.0
vertex 5.17638090205041 -19.3185165257814 0.0
endloop
endfacet
facet normal 0.608761429008721 -0.793353340291235 0.0
outer loop
vertex 14.1421356237309 -14.1421356237309 0.0
vertex 10.0 -17.3205080756888 -0.2
vertex 14.1421356237309 -14.1421356237309 -0.2
endloop
endfacet
facet normal 0.608761429008721 -0.793353340291235 0.0
outer loop
vertex 10.0 -17.3205080756888 -0.2
vertex 14.1421356237309 -14.1421356237309 0.0
vertex 10.0 -17.3205080756888 0.0
endloop
endfacet
facet normal 0.793353340291235 -0.608761429008721 0.0
outer loop
vertex 17.3205080756888 -10.0 -0.2
vertex 14.1421356237309 -14.1421356237309 0.0
vertex 14.1421356237309 -14.1421356237309 -0.2
endloop
endfacet
facet normal 0.793353340291235 -0.608761429008721 0.0
outer loop
vertex 14.1421356237309 -14.1421356237309 0.0
vertex 17.3205080756888 -10.0 -0.2
vertex 17.3205080756888 -10.0 0.0
endloop
endfacet
facet normal 0.923879532511287 -0.38268343236509 0.0
outer loop
vertex 19.3185165257814 -5.17638090205042 -0.2
vertex 17.3205080756888 -10.0 0.0
vertex 17.3205080756888 -10.0 -0.2
endloop
endfacet
facet normal 0.923879532511287 -0.38268343236509 0.0
outer loop
vertex 17.3205080756888 -10.0 0.0
vertex 19.3185165257814 -5.17638090205042 -0.2
vertex 19.3185165257814 -5.17638090205042 0.0
endloop
endfacet
facet normal 0.99144486137381 -0.130526192220052 -0.0
outer loop
vertex 20.0 -1.22464679914735e-15 -0.2
vertex 19.3185165257814 -5.17638090205042 0.0
vertex 19.3185165257814 -5.17638090205042 -0.2
endloop
endfacet
facet normal 0.99144486137381 -0.130526192220052 -0.0
outer loop
vertex 19.3185165257814 -5.17638090205042 0.0
vertex 20.0 -1.22464679914735e-15 -0.2
vertex 20.0 -1.22464679914735e-15 0.0
endloop
endfacet
facet normal -0.99144486137381 -0.130526192220052 0.0
outer loop
vertex 80.0 -2.44929359829471e-15 0.0
vertex 80.6814834742186 -5.17638090205042 -0.2
vertex 80.6814834742186 -5.17638090205042 0.0
endloop
endfacet
facet normal -0.99144486137381 -0.130526192220052 0.0
outer loop
vertex 80.6814834742186 -5.17638090205042 -0.2
vertex 80.0 -2.44929359829471e-15 0.0
vertex 80.0 -2.44929359829471e-15 -0.2
endloop
endfacet
facet normal -0.923879532511287 -0.382683432365089 -0.0
outer loop
vertex 80.6814834742186 -5.17638090205042 0.0
vertex 82.6794919243112 -10.0 -0.2
vertex 82.6794919243112 -10.0 0.0
endloop
endfacet
facet normal -0.923879532511287 -0.382683432365089 -0.0
outer loop
vertex 82.6794919243112 -10.0 -0.2
vertex 80.6814834742186 -5.17638090205042 0.0
vertex 80.6814834742186 -5.17638090205042 -0.2
endloop
endfacet
facet normal -0.793353340291234 -0.608761429008722 -0.0
outer loop
vertex 82.6794919243112 -10.0 0.0
vertex 85.857864376269 -14.142135623731 -0.2
vertex 85.857864376269 -14.142135623731 0.0
endloop
endfacet
facet normal -0.793353340291234 -0.608761429008722 -0.0
outer loop
vertex 85.857864376269 -14.142135623731 -0.2
vertex 82.6794919243112 -10.0 0.0
vertex 82.6794919243112 -10.0 -0.2
endloop
endfacet
facet normal -0.608761429008721 -0.793353340291234 -0.0
outer loop
vertex 90.0 -17.3205080756888 0.0
vertex 85.857864376269 -14.142135623731 -0.2
vertex 90.0 -17.3205080756888 -0.2
endloop
endfacet
facet normal -0.608761429008721 -0.793353340291234 -0.0
outer loop
vertex 85.857864376269 -14.142135623731 -0.2
vertex 90.0 -17.3205080756888 0.0
vertex 85.857864376269 -14.142135623731 0.0
endloop
endfacet
facet normal -0.382683432365089 -0.923879532511287 -0.0
outer loop
vertex 94.8236190979496 -19.3185165257814 0.0
vertex 90.0 -17.3205080756888 -0.2
vertex 94.8236190979496 -19.3185165257814 -0.2
endloop
endfacet
facet normal -0.382683432365089 -0.923879532511287 -0.0
outer loop
vertex 90.0 -17.3205080756888 -0.2
vertex 94.8236190979496 -19.3185165257814 0.0
vertex 90.0 -17.3205080756888 0.0
endloop
endfacet
facet normal -0.130526192220052 -0.99144486137381 -0.0
outer loop
vertex 100.0 -20.0 0.0
vertex 94.8236190979496 -19.3185165257814 -0.2
vertex 100.0 -20.0 -0.2
endloop
endfacet
facet normal -0.130526192220052 -0.99144486137381 -0.0
outer loop
vertex 94.8236190979496 -19.3185165257814 -0.2
vertex 100.0 -20.0 0.0
vertex 94.8236190979496 -19.3185165257814 0.0
endloop
endfacet
facet normal 0.130526192220052 -0.99144486137381 0.0
outer loop
vertex 105.17638090205 -19.3185165257814 0.0
vertex 100.0 -20.0 -0.2
vertex 105.17638090205 -19.3185165257814 -0.2
endloop
endfacet
facet normal 0.130526192220052 -0.99144486137381 0.0
outer loop
vertex 100.0 -20.0 -0.2
vertex 105.17638090205 -19.3185165257814 0.0
vertex 100.0 -20.0 0.0
endloop
endfacet
facet normal 0.382683432365089 -0.923879532511287 0.0
outer loop
vertex 110.0 -17.3205080756888 0.0
vertex 105.17638090205 -19.3185165257814 -0.2
vertex 110.0 -17.3205080756888 -0.2
endloop
endfacet
facet normal 0.382683432365089 -0.923879532511287 0.0
outer loop
vertex 105.17638090205 -19.3185165257814 -0.2
vertex 110.0 -17.3205080756888 0.0
vertex 105.17638090205 -19.3185165257814 0.0
endloop
endfacet
facet normal 0.60876142900872 -0.793353340291235 0.0
outer loop
vertex 114.142135623731 -14.142135623731 0.0
vertex 110.0 -17.3205080756888 -0.2
vertex 114.142135623731 -14.142135623731 -0.2
endloop
endfacet
facet normal 0.60876142900872 -0.793353340291235 0.0
outer loop
vertex 110.0 -17.3205080756888 -0.2
vertex 114.142135623731 -14.142135623731 0.0
vertex 110.0 -17.3205080756888 0.0
endloop
endfacet
facet normal 0.793353340291235 -0.60876142900872 0.0
outer loop
vertex 117.320508075689 -10.0 -0.2
vertex 114.142135623731 -14.142135623731 0.0
vertex 114.142135623731 -14.142135623731 -0.2
endloop
endfacet
facet normal 0.793353340291235 -0.60876142900872 0.0
outer loop
vertex 114.142135623731 -14.142135623731 0.0
vertex 117.320508075689 -10.0 -0.2
vertex 117.320508075689 -10.0 0.0
endloop
endfacet
facet normal 0.923879532511287 -0.382683432365089 0.0
outer loop
vertex 119.318516525781 -5.17638090205042 -0.2
vertex 117.320508075689 -10.0 0.0
vertex 117.320508075689 -10.0 -0.2
endloop
endfacet
facet normal 0.923879532511287 -0.382683432365089 0.0
outer loop
vertex 117.320508075689 -10.0 0.0
vertex 119.318516525781 -5.17638090205042 -0.2
vertex 119.318516525781 -5.17638090205042 0.0
endloop
endfacet
facet normal 0.99144486137381 -0.130526192220052 0.0
outer loop
vertex 120.0 0.0 -0.2
vertex 119.318516525781 -5.17638090205042 0.0
vertex 119.318516525781 -5.17638090205042 -0.2
endloop
endfacet
facet normal 0.99144486137381 -0.130526192220052 0.0
outer loop
vertex 119.318516525781 -5.17638090205042 0.0
vertex 120.0 0.0 -0.2
vertex 120.0 0.0 0.0
endloop
endfacet
facet normal 0.99144486137381 0.130526192220051 0.0
outer loop
vertex 119.318516525781 5.17638090205043 -0.2
vertex 120.0 0.0 0.0
vertex 120.0 0.0 -0.2
endloop
endfacet
facet normal 0.99144486137381 0.130526192220051 0.0
outer loop
vertex 120.0 0.0 0.0
vertex 119.318516525781 5.17638090205043 -0.2
vertex 119.318516525781 5.17638090205043 0.0
endloop
endfacet
facet normal 0.923879532511287 0.38268343236509 0.0
outer loop
vertex 117.320508075689 10.0 -0.2
vertex 119.318516525781 5.17638090205043 0.0
vertex 119.318516525781 5.17638090205043 -0.2
endloop
endfacet
facet normal 0.923879532511287 0.38268343236509 0.0
outer loop
vertex 119.318516525781 5.17638090205043 0.0
vertex 117.320508075689 10.0 -0.2
vertex 117.320508075689 10.0 0.0
endloop
endfacet
facet normal 0.793353340291235 0.608761429008721 0.0
outer loop
vertex 114.142135623731 14.142135623731 -0.2
vertex 117.320508075689 10.0 0.0
vertex 117.320508075689 10.0 -0.2
endloop
endfacet
facet normal 0.793353340291235 0.608761429008721 0.0
outer loop
vertex 117.320508075689 10.0 0.0
vertex 114.142135623731 14.142135623731 -0.2
vertex 114.142135623731 14.142135623731 0.0
endloop
endfacet
facet normal 0.608761429008719 0.793353340291237 0.0
outer loop
vertex 110.0 17.3205080756888 0.0
vertex 114.142135623731 14.142135623731 -0.2
vertex 110.0 17.3205080756888 -0.2
endloop
endfacet
facet normal 0.608761429008719 0.793353340291237 0.0
outer loop
vertex 114.142135623731 14.142135623731 -0.2
vertex 110.0 17.3205080756888 0.0
vertex 114.142135623731 14.142135623731 0.0
endloop
endfacet
facet normal 0.38268343236509 0.923879532511287 0.0
outer loop
vertex 105.17638090205 19.3185165257814 0.0
vertex 110.0 17.3205080756888 -0.2
vertex 105.17638090205 19.3185165257814 -0.2
endloop
endfacet
facet normal 0.38268343236509 0.923879532511287 0.0
outer loop
vertex 110.0 17.3205080756888 -0.2
vertex 105.17638090205 19.3185165257814 0.0
vertex 110.0 17.3205080756888 0.0
endloop
endfacet
facet normal 0.130526192220051 0.99144486137381 -0.0
outer loop
vertex 100.0 20.0 0.0
vertex 105.17638090205 19.3185165257814 -0.2
vertex 100.0 20.0 -0.2
endloop
endfacet
facet normal 0.130526192220051 0.99144486137381 -0.0
outer loop
vertex 105.17638090205 19.3185165257814 -0.2
vertex 100.0 20.0 0.0
vertex 105.17638090205 19.3185165257814 0.0
endloop
endfacet
facet normal 0.0 0.0 -1.0
outer loop
vertex -19.3185165257814 85.1763809020504 -0.2
vertex -19.3185165257814 74.8236190979495 -0.2
vertex -20.0 80.0 -0.2
endloop
endfacet
facet normal 0.0 0.0 -1.0
outer loop
vertex -19.3185165257814 74.8236190979495 -0.2
vertex -19.3185165257814 85.1763809020504 -0.2
vertex -17.3205080756888 70.0 -0.2
endloop
endfacet
facet normal 0.0 0.0 -1.0
outer loop
vertex -17.3205080756888 70.0 -0.2
vertex -19.3185165257814 85.1763809020504 -0.2
vertex -17.3205080756888 90.0 -0.2
endloop
endfacet
facet normal 0.0 0.0 -1.0
outer loop
vertex -17.3205080756888 70.0 -0.2
vertex -17.3205080756888 90.0 -0.2
vertex -14.1421356237309 65.857864376269 -0.2
endloop
endfacet
facet normal 0.0 0.0 -1.0
outer loop
vertex -14.1421356237309 65.857864376269 -0.2
vertex -17.3205080756888 90.0 -0.2
vertex -14.1421356237309 94.1421356237309 -0.2
endloop
endfacet
facet normal 0.0 0.0 -1.0
outer loop
vertex -14.1421356237309 65.857864376269 -0.2
vertex -14.1421356237309 94.1421356237309 -0.2
vertex -10.0 62.6794919243112 -0.2
endloop
endfacet
facet normal 0.0 0.0 -1.0
outer loop
vertex -10.0 62.6794919243112 -0.2
vertex -14.1421356237309 94.1421356237309 -0.2
vertex -9.99999999999998 97.3205080756887 -0.2
endloop
endfacet
facet normal 0.0 0.0 -1.0
outer loop
vertex -10.0 62.6794919243112 -0.2
vertex -9.99999999999998 97.3205080756887 -0.2
vertex -5.17638090205042 60.6814834742186 -0.2
endloop
endfacet
facet normal 0.0 0.0 -1.0
outer loop
vertex -5.17638090205042 60.6814834742186 -0.2
vertex -9.99999999999998 97.3205080756887 -0.2
vertex -5.17638090205041 99.3185165257813 -0.2
endloop
endfacet
facet normal 0.0 0.0 -1.0
outer loop
vertex -5.17638090205042 60.6814834742186 -0.2
vertex -5.17638090205041 99.3185165257813 -0.2
vertex -1.22464679914735e-15 60.0 -0.2
endloop
endfacet
facet normal 0.0 0.0 -1.0
outer loop
vertex -1.22464679914735e-15 60.0 -0.2
vertex -5.17638090205041 99.3185165257813 -0.2
vertex 3.67394039744206e-15 100.0 -0.2
endloop
endfacet
facet normal 0.0 0.0 -1.0
outer loop
vertex -1.22464679914735e-15 60.0 -0.2
vertex 3.67394039744206e-15 100.0 -0.2
vertex 2.44929359829471e-15 20.0 -0.2
endloop
endfacet
facet normal 0.0 0.0 -1.0
outer loop
vertex 105.17638090205 99.3185165257813 -0.2
vertex 100.0 60.0 -0.2
vertex 100.0 100.0 -0.2
endloop
endfacet
facet normal 0.0 0.0 -1.0
outer loop
vertex 100.0 60.0 -0.2
vertex 105.17638090205 99.3185165257813 -0.2
vertex 105.17638090205 60.6814834742186 -0.2
endloop
endfacet
facet normal 0.0 0.0 -1.0
outer loop
vertex 105.17638090205 60.6814834742186 -0.2
vertex 105.17638090205 99.3185165257813 -0.2
vertex 110.0 97.3205080756887 -0.2
endloop
endfacet
facet normal 0.0 0.0 -1.0
outer loop
vertex 105.17638090205 60.6814834742186 -0.2
vertex 110.0 97.3205080756887 -0.2
vertex 110.0 62.6794919243112 -0.2
endloop
endfacet
facet normal 0.0 0.0 -1.0
outer loop
vertex 110.0 62.6794919243112 -0.2
vertex 110.0 97.3205080756887 -0.2
vertex 114.142135623731 94.1421356237309 -0.2
endloop
endfacet
facet normal 0.0 0.0 -1.0
outer loop
vertex 110.0 62.6794919243112 -0.2
vertex 114.142135623731 94.1421356237309 -0.2
vertex 114.142135623731 65.857864376269 -0.2
endloop
endfacet
facet normal 0.0 0.0 -1.0
outer loop
vertex 114.142135623731 65.857864376269 -0.2
vertex 114.142135623731 94.1421356237309 -0.2
vertex 117.320508075689 90.0 -0.2
endloop
endfacet
facet normal 0.0 0.0 -1.0
outer loop
vertex 114.142135623731 65.857864376269 -0.2
vertex 117.320508075689 90.0 -0.2
vertex 117.320508075689 70.0 -0.2
endloop
endfacet
facet normal 0.0 0.0 -1.0
outer loop
vertex 117.320508075689 70.0 -0.2
vertex 117.320508075689 90.0 -0.2
vertex 119.318516525781 85.1763809020504 -0.2
endloop
endfacet
facet normal 0.0 0.0 -1.0
outer loop
vertex 117.320508075689 70.0 -0.2
vertex 119.318516525781 85.1763809020504 -0.2
vertex 119.318516525781 74.8236190979495 -0.2
endloop
endfacet
facet normal 0.0 0.0 -1.0
outer loop
vertex 119.318516525781 74.8236190979495 -0.2
vertex 119.318516525781 85.1763809020504 -0.2
vertex 120.0 80.0 -0.2
endloop
endfacet
facet normal 0.0 0.0 -1.0
outer loop
vertex -19.3185165257814 5.17638090205043 -0.2
vertex -19.3185165257814 -5.17638090205041 -0.2
vertex -20.0 3.67394039744206e-15 -0.2
endloop
endfacet
facet normal 0.0 0.0 -1.0
outer loop
vertex -19.3185165257814 -5.17638090205041 -0.2
vertex -19.3185165257814 5.17638090205043 -0.2
vertex -17.3205080756888 -9.99999999999998 -0.2
endloop
endfacet
facet normal 0.0 0.0 -1.0
outer loop
vertex -17.3205080756888 -9.99999999999998 -0.2
vertex -19.3185165257814 5.17638090205043 -0.2
vertex -17.3205080756888 10.0 -0.2
endloop
endfacet
facet normal 0.0 0.0 -1.0
outer loop
vertex -17.3205080756888 -9.99999999999998 -0.2
vertex -17.3205080756888 10.0 -0.2
vertex -14.142135623731 -14.1421356237309 -0.2
endloop
endfacet
facet normal 0.0 0.0 -1.0
outer loop
vertex -14.142135623731 -14.1421356237309 -0.2
vertex -17.3205080756888 10.0 -0.2
vertex -14.1421356237309 14.142135623731 -0.2
endloop
endfacet
facet normal 0.0 0.0 -1.0
outer loop
vertex -14.142135623731 -14.1421356237309 -0.2
vertex -14.1421356237309 14.142135623731 -0.2
vertex -10.0 -17.3205080756888 -0.2
endloop
endfacet
facet normal 0.0 0.0 -1.0
outer loop
vertex -10.0 -17.3205080756888 -0.2
vertex -14.1421356237309 14.142135623731 -0.2
vertex -9.99999999999999 17.3205080756888 -0.2
endloop
endfacet
facet normal 0.0 0.0 -1.0
outer loop
vertex -10.0 -17.3205080756888 -0.2
vertex -9.99999999999999 17.3205080756888 -0.2
vertex -5.17638090205043 -19.3185165257814 -0.2
endloop
endfacet
facet normal 0.0 0.0 -1.0
outer loop
vertex -5.17638090205043 -19.3185165257814 -0.2
vertex -9.99999999999999 17.3205080756888 -0.2
vertex -5.17638090205041 19.3185165257814 -0.2
endloop
endfacet
facet normal 0.0 0.0 -1.0
outer loop
vertex -5.17638090205043 -19.3185165257814 -0.2
vertex -5.17638090205041 19.3185165257814 -0.2
vertex 0.0 -20.0 -0.2
endloop
endfacet
facet normal 0.0 0.0 -1.0
outer loop
vertex 0.0 -20.0 -0.2
vertex -5.17638090205041 19.3185165257814 -0.2
vertex 2.44929359829471e-15 20.0 -0.2
endloop
endfacet
facet normal 0.0 0.0 -1.0
outer loop
vertex 0.0 -20.0 -0.2
vertex 2.44929359829471e-15 20.0 -0.2
vertex 5.17638090205041 -19.3185165257814 -0.2
endloop
endfacet
facet normal 0.0 0.0 -1.0
outer loop
vertex 5.17638090205041 -19.3185165257814 -0.2
vertex 2.44929359829471e-15 20.0 -0.2
vertex 3.67394039744206e-15 100.0 -0.2
endloop
endfacet
facet normal 0.0 0.0 -1.0
outer loop
vertex 5.17638090205041 -19.3185165257814 -0.2
vertex 3.67394039744206e-15 100.0 -0.2
vertex 5.17638090205043 99.3185165257813 -0.2
endloop
endfacet
facet normal 0.0 0.0 -1.0
outer loop
vertex 5.17638090205041 -19.3185165257814 -0.2
vertex 5.17638090205043 99.3185165257813 -0.2
vertex 10.0 -17.3205080756888 -0.2
endloop
endfacet
facet normal 0.0 0.0 -1.0
outer loop
vertex 10.0 -17.3205080756888 -0.2
vertex 5.17638090205043 99.3185165257813 -0.2
vertex 10.0 97.3205080756887 -0.2
endloop
endfacet
facet normal 0.0 0.0 -1.0
outer loop
vertex 10.0 -17.3205080756888 -0.2
vertex 10.0 97.3205080756887 -0.2
vertex 14.1421356237309 -14.1421356237309 -0.2
endloop
endfacet
facet normal 0.0 0.0 -1.0
outer loop
vertex 14.1421356237309 -14.1421356237309 -0.2
vertex 10.0 97.3205080756887 -0.2
vertex 14.142135623731 94.1421356237309 -0.2
endloop
endfacet
facet normal 0.0 0.0 -1.0
outer loop
vertex 14.1421356237309 -14.1421356237309 -0.2
vertex 14.142135623731 94.1421356237309 -0.2
vertex 17.3205080756888 -10.0 -0.2
endloop
endfacet
facet normal 0.0 0.0 -1.0
outer loop
vertex 17.3205080756888 -10.0 -0.2
vertex 14.142135623731 94.1421356237309 -0.2
vertex 17.3205080756888 89.9999999999999 -0.2
endloop
endfacet
facet normal 0.0 0.0 -1.0
outer loop
vertex 17.3205080756888 -10.0 -0.2
vertex 17.3205080756888 89.9999999999999 -0.2
vertex 19.3185165257814 -5.17638090205042 -0.2
endloop
endfacet
facet normal 0.0 0.0 -1.0
outer loop
vertex 19.3185165257814 -5.17638090205042 -0.2
vertex 17.3205080756888 89.9999999999999 -0.2
vertex 19.3185165257814 85.1763809020504 -0.2
endloop
endfacet
facet normal 0.0 0.0 -1.0
outer loop
vertex 19.3185165257814 -5.17638090205042 -0.2
vertex 19.3185165257814 85.1763809020504 -0.2
vertex 20.0 80.0 -0.2
endloop
endfacet
facet normal 0.0 0.0 -1.0
outer loop
vertex 19.3185165257814 -5.17638090205042 -0.2
vertex 20.0 80.0 -0.2
vertex 20.0 -1.22464679914735e-15 -0.2
endloop
endfacet
facet normal 0.0 0.0 -1.0
outer loop
vertex 20.0 -1.22464679914735e-15 -0.2
vertex 20.0 80.0 -0.2
vertex 80.0 80.0 -0.2
endloop
endfacet
facet normal 0.0 0.0 -1.0
outer loop
vertex 20.0 -1.22464679914735e-15 -0.2
vertex 80.0 80.0 -0.2
vertex 80.0 -2.44929359829471e-15 -0.2
endloop
endfacet
facet normal 0.0 0.0 -1.0
outer loop
vertex 80.0 -2.44929359829471e-15 -0.2
vertex 80.0 80.0 -0.2
vertex 80.6814834742186 -5.17638090205042 -0.2
endloop
endfacet
facet normal 0.0 0.0 -1.0
outer loop
vertex 80.6814834742186 -5.17638090205042 -0.2
vertex 80.0 80.0 -0.2
vertex 80.6814834742186 85.1763809020504 -0.2
endloop
endfacet
facet normal 0.0 0.0 -1.0
outer loop
vertex 80.6814834742186 -5.17638090205042 -0.2
vertex 80.6814834742186 85.1763809020504 -0.2
vertex 82.6794919243112 -10.0 -0.2
endloop
endfacet
facet normal 0.0 0.0 -1.0
outer loop
vertex 82.6794919243112 -10.0 -0.2
vertex 80.6814834742186 85.1763809020504 -0.2
vertex 82.6794919243112 89.9999999999999 -0.2
endloop
endfacet
facet normal 0.0 0.0 -1.0
outer loop
vertex 82.6794919243112 -10.0 -0.2
vertex 82.6794919243112 89.9999999999999 -0.2
vertex 85.857864376269 94.1421356237309 -0.2
endloop
endfacet
facet normal 0.0 0.0 -1.0
outer loop
vertex 82.6794919243112 -10.0 -0.2
vertex 85.857864376269 94.1421356237309 -0.2
vertex 85.857864376269 -14.142135623731 -0.2
endloop
endfacet
facet normal 0.0 0.0 -1.0
outer loop
vertex 85.857864376269 -14.142135623731 -0.2
vertex 85.857864376269 94.1421356237309 -0.2
vertex 90.0 97.3205080756887 -0.2
endloop
endfacet
facet normal 0.0 0.0 -1.0
outer loop
vertex 85.857864376269 -14.142135623731 -0.2
vertex 90.0 97.3205080756887 -0.2
vertex 90.0 -17.3205080756888 -0.2
endloop
endfacet
facet normal 0.0 0.0 -1.0
outer loop
vertex 90.0 -17.3205080756888 -0.2
vertex 90.0 97.3205080756887 -0.2
vertex 94.8236190979496 99.3185165257813 -0.2
endloop
endfacet
facet normal 0.0 0.0 -1.0
outer loop
vertex 90.0 -17.3205080756888 -0.2
vertex 94.8236190979496 99.3185165257813 -0.2
vertex 94.8236190979496 -19.3185165257814 -0.2
endloop
endfacet
facet normal 0.0 0.0 -1.0
outer loop
vertex 94.8236190979496 -19.3185165257814 -0.2
vertex 94.8236190979496 99.3185165257813 -0.2
vertex 100.0 100.0 -0.2
endloop
endfacet
facet normal 0.0 0.0 -1.0
outer loop
vertex 94.8236190979496 -19.3185165257814 -0.2
vertex 100.0 100.0 -0.2
vertex 100.0 -20.0 -0.2
endloop
endfacet
facet normal 0.0 0.0 -1.0
outer loop
vertex 100.0 -20.0 -0.2
vertex 100.0 100.0 -0.2
vertex 100.0 60.0 -0.2
endloop
endfacet
facet normal 0.0 0.0 -1.0
outer loop
vertex 100.0 -20.0 -0.2
vertex 100.0 60.0 -0.2
vertex 100.0 20.0 -0.2
endloop
endfacet
facet normal 0.0 0.0 -1.0
outer loop
vertex 100.0 -20.0 -0.2
vertex 100.0 20.0 -0.2
vertex 105.17638090205 19.3185165257814 -0.2
endloop
endfacet
facet normal 0.0 0.0 -1.0
outer loop
vertex 100.0 -20.0 -0.2
vertex 105.17638090205 19.3185165257814 -0.2
vertex 105.17638090205 -19.3185165257814 -0.2
endloop
endfacet
facet normal 0.0 0.0 -1.0
outer loop
vertex 105.17638090205 -19.3185165257814 -0.2
vertex 105.17638090205 19.3185165257814 -0.2
vertex 110.0 17.3205080756888 -0.2
endloop
endfacet
facet normal 0.0 0.0 -1.0
outer loop
vertex 105.17638090205 -19.3185165257814 -0.2
vertex 110.0 17.3205080756888 -0.2
vertex 110.0 -17.3205080756888 -0.2
endloop
endfacet
facet normal 0.0 0.0 -1.0
outer loop
vertex 110.0 -17.3205080756888 -0.2
vertex 110.0 17.3205080756888 -0.2
vertex 114.142135623731 14.142135623731 -0.2
endloop
endfacet
facet normal 0.0 0.0 -1.0
outer loop
vertex 110.0 -17.3205080756888 -0.2
vertex 114.142135623731 14.142135623731 -0.2
vertex 114.142135623731 -14.142135623731 -0.2
endloop
endfacet
facet normal 0.0 0.0 -1.0
outer loop
vertex 114.142135623731 -14.142135623731 -0.2
vertex 114.142135623731 14.142135623731 -0.2
vertex 117.320508075689 10.0 -0.2
endloop
endfacet
facet normal 0.0 0.0 -1.0
outer loop
vertex 114.142135623731 -14.142135623731 -0.2
vertex 117.320508075689 10.0 -0.2
vertex 117.320508075689 -10.0 -0.2
endloop
endfacet
facet normal 0.0 0.0 -1.0
outer loop
vertex 117.320508075689 -10.0 -0.2
vertex 117.320508075689 10.0 -0.2
vertex 119.318516525781 5.17638090205043 -0.2
endloop
endfacet
facet normal 0.0 0.0 -1.0
outer loop
vertex 117.320508075689 -10.0 -0.2
vertex 119.318516525781 5.17638090205043 -0.2
vertex 119.318516525781 -5.17638090205042 -0.2
endloop
endfacet
facet normal 0.0 0.0 -1.0
outer loop
vertex 119.318516525781 -5.17638090205042 -0.2
vertex 119.318516525781 5.17638090205043 -0.2
vertex 120.0 0.0 -0.2
endloop
endfacet
facet normal -0.99144486137381 0.130526192220052 0.0
outer loop
vertex 80.6814834742186 85.1763809020504 0.0
vertex 80.0 80.0 -0.2
vertex 80.0 80.0 0.0
endloop
endfacet
facet normal -0.99144486137381 0.130526192220052 0.0
outer loop
vertex 80.0 80.0 -0.2
vertex 80.6814834742186 85.1763809020504 0.0
vertex 80.6814834742186 85.1763809020504 -0.2
endloop
endfacet
facet normal 0.130526192220052 -0.99144486137381 0.0
outer loop
vertex 105.17638090205 60.6814834742186 0.0
vertex 100.0 60.0 -0.2
vertex 105.17638090205 60.6814834742186 -0.2
endloop
endfacet
facet normal 0.130526192220052 -0.99144486137381 0.0
outer loop
vertex 100.0 60.0 -0.2
vertex 105.17638090205 60.6814834742186 0.0
vertex 100.0 60.0 0.0
endloop
endfacet
facet normal 0.382683432365091 -0.923879532511286 0.0
outer loop
vertex 110.0 62.6794919243112 0.0
vertex 105.17638090205 60.6814834742186 -0.2
vertex 110.0 62.6794919243112 -0.2
endloop
endfacet
facet normal 0.382683432365091 -0.923879532511286 0.0
outer loop
vertex 105.17638090205 60.6814834742186 -0.2
vertex 110.0 62.6794919243112 0.0
vertex 105.17638090205 60.6814834742186 0.0
endloop
endfacet
facet normal 0.608761429008722 -0.793353340291234 0.0
outer loop
vertex 114.142135623731 65.857864376269 0.0
vertex 110.0 62.6794919243112 -0.2
vertex 114.142135623731 65.857864376269 -0.2
endloop
endfacet
facet normal 0.608761429008722 -0.793353340291234 0.0
outer loop
vertex 110.0 62.6794919243112 -0.2
vertex 114.142135623731 65.857864376269 0.0
vertex 110.0 62.6794919243112 0.0
endloop
endfacet
facet normal 0.793353340291233 -0.608761429008723 0.0
outer loop
vertex 117.320508075689 70.0 -0.2
vertex 114.142135623731 65.857864376269 0.0
vertex 114.142135623731 65.857864376269 -0.2
endloop
endfacet
facet normal 0.793353340291233 -0.608761429008723 0.0
outer loop
vertex 114.142135623731 65.857864376269 0.0
vertex 117.320508075689 70.0 -0.2
vertex 117.320508075689 70.0 0.0
endloop
endfacet
facet normal 0.923879532511289 -0.382683432365086 0.0
outer loop
vertex 119.318516525781 74.8236190979495 -0.2
vertex 117.320508075689 70.0 0.0
vertex 117.320508075689 70.0 -0.2
endloop
endfacet
facet normal 0.923879532511289 -0.382683432365086 0.0
outer loop
vertex 117.320508075689 70.0 0.0
vertex 119.318516525781 74.8236190979495 -0.2
vertex 119.318516525781 74.8236190979495 0.0
endloop
endfacet
facet normal 0.99144486137381 -0.130526192220056 0.0
outer loop
vertex 120.0 80.0 -0.2
vertex 119.318516525781 74.8236190979495 0.0
vertex 119.318516525781 74.8236190979495 -0.2
endloop
endfacet
facet normal 0.99144486137381 -0.130526192220056 0.0
outer loop
vertex 119.318516525781 74.8236190979495 0.0
vertex 120.0 80.0 -0.2
vertex 120.0 80.0 0.0
endloop
endfacet
facet normal 0.99144486137381 0.130526192220056 0.0
outer loop
vertex 119.318516525781 85.1763809020504 -0.2
vertex 120.0 80.0 0.0
vertex 120.0 80.0 -0.2
endloop
endfacet
facet normal 0.99144486137381 0.130526192220056 0.0
outer loop
vertex 120.0 80.0 0.0
vertex 119.318516525781 85.1763809020504 -0.2
vertex 119.318516525781 85.1763809020504 0.0
endloop
endfacet
facet normal 0.923879532511287 0.382683432365089 0.0
outer loop
vertex 117.320508075689 90.0 -0.2
vertex 119.318516525781 85.1763809020504 0.0
vertex 119.318516525781 85.1763809020504 -0.2
endloop
endfacet
facet normal 0.923879532511287 0.382683432365089 0.0
outer loop
vertex 119.318516525781 85.1763809020504 0.0
vertex 117.320508075689 90.0 -0.2
vertex 117.320508075689 90.0 0.0
endloop
endfacet
facet normal 0.793353340291235 0.608761429008721 0.0
outer loop
vertex 114.142135623731 94.1421356237309 -0.2
vertex 117.320508075689 90.0 0.0
vertex 117.320508075689 90.0 -0.2
endloop
endfacet
facet normal 0.793353340291235 0.608761429008721 0.0
outer loop
vertex 117.320508075689 90.0 0.0
vertex 114.142135623731 94.1421356237309 -0.2
vertex 114.142135623731 94.1421356237309 0.0
endloop
endfacet
facet normal 0.608761429008722 0.793353340291234 0.0
outer loop
vertex 110.0 97.3205080756887 0.0
vertex 114.142135623731 94.1421356237309 -0.2
vertex 110.0 97.3205080756887 -0.2
endloop
endfacet
facet normal 0.608761429008722 0.793353340291234 0.0
outer loop
vertex 114.142135623731 94.1421356237309 -0.2
vertex 110.0 97.3205080756887 0.0
vertex 114.142135623731 94.1421356237309 0.0
endloop
endfacet
facet normal 0.382683432365089 0.923879532511287 0.0
outer loop
vertex 105.17638090205 99.3185165257813 0.0
vertex 110.0 97.3205080756887 -0.2
vertex 105.17638090205 99.3185165257813 -0.2
endloop
endfacet
facet normal 0.382683432365089 0.923879532511287 0.0
outer loop
vertex 110.0 97.3205080756887 -0.2
vertex 105.17638090205 99.3185165257813 0.0
vertex 110.0 97.3205080756887 0.0
endloop
endfacet
facet normal 0.130526192220052 0.99144486137381 0.0
outer loop
vertex 100.0 100.0 0.0
vertex 105.17638090205 99.3185165257813 -0.2
vertex 100.0 100.0 -0.2
endloop
endfacet
facet normal 0.130526192220052 0.99144486137381 0.0
outer loop
vertex 105.17638090205 99.3185165257813 -0.2
vertex 100.0 100.0 0.0
vertex 105.17638090205 99.3185165257813 0.0
endloop
endfacet
facet normal -0.130526192220051 0.99144486137381 0.0
outer loop
vertex 94.8236190979496 99.3185165257813 0.0
vertex 100.0 100.0 -0.2
vertex 94.8236190979496 99.3185165257813 -0.2
endloop
endfacet
facet normal -0.130526192220051 0.99144486137381 0.0
outer loop
vertex 100.0 100.0 -0.2
vertex 94.8236190979496 99.3185165257813 0.0
vertex 100.0 100.0 0.0
endloop
endfacet
facet normal -0.382683432365092 0.923879532511286 0.0
outer loop
vertex 90.0 97.3205080756887 0.0
vertex 94.8236190979496 99.3185165257813 -0.2
vertex 90.0 97.3205080756887 -0.2
endloop
endfacet
facet normal -0.382683432365092 0.923879532511286 0.0
outer loop
vertex 94.8236190979496 99.3185165257813 -0.2
vertex 90.0 97.3205080756887 0.0
vertex 94.8236190979496 99.3185165257813 0.0
endloop
endfacet
facet normal -0.608761429008721 0.793353340291235 0.0
outer loop
vertex 85.857864376269 94.1421356237309 0.0
vertex 90.0 97.3205080756887 -0.2
vertex 85.857864376269 94.1421356237309 -0.2
endloop
endfacet
facet normal -0.608761429008721 0.793353340291235 0.0
outer loop
vertex 90.0 97.3205080756887 -0.2
vertex 85.857864376269 94.1421356237309 0.0
vertex 90.0 97.3205080756887 0.0
endloop
endfacet
facet normal -0.793353340291235 0.608761429008721 0.0
outer loop
vertex 85.857864376269 94.1421356237309 0.0
vertex 82.6794919243112 89.9999999999999 -0.2
vertex 82.6794919243112 89.9999999999999 0.0
endloop
endfacet
facet normal -0.793353340291235 0.608761429008721 0.0
outer loop
vertex 82.6794919243112 89.9999999999999 -0.2
vertex 85.857864376269 94.1421356237309 0.0
vertex 85.857864376269 94.1421356237309 -0.2
endloop
endfacet
facet normal -0.923879532511288 0.382683432365088 0.0
outer loop
vertex 82.6794919243112 89.9999999999999 0.0
vertex 80.6814834742186 85.1763809020504 -0.2
vertex 80.6814834742186 85.1763809020504 0.0
endloop
endfacet
facet normal -0.923879532511288 0.382683432365088 0.0
outer loop
vertex 80.6814834742186 85.1763809020504 -0.2
vertex 82.6794919243112 89.9999999999999 0.0
vertex 82.6794919243112 89.9999999999999 -0.2
endloop
endfacet
facet normal -0.130526192220052 -0.99144486137381 0.0
outer loop
vertex -1.22464679914735e-15 60.0 0.0
vertex -5.17638090205042 60.6814834742186 -0.2
vertex -1.22464679914735e-15 60.0 -0.2
endloop
endfacet
facet normal -0.130526192220052 -0.99144486137381 0.0
outer loop
vertex -5.17638090205042 60.6814834742186 -0.2
vertex -1.22464679914735e-15 60.0 0.0
vertex -5.17638090205042 60.6814834742186 0.0
endloop
endfacet
facet normal 0.99144486137381 0.130526192220051 -0.0
outer loop
vertex 19.3185165257814 85.1763809020504 -0.2
vertex 20.0 80.0 0.0
vertex 20.0 80.0 -0.2
endloop
endfacet
facet normal 0.99144486137381 0.130526192220051 -0.0
outer loop
vertex 20.0 80.0 0.0
vertex 19.3185165257814 85.1763809020504 -0.2
vertex 19.3185165257814 85.1763809020504 0.0
endloop
endfacet
facet normal 0.923879532511287 0.382683432365089 0.0
outer loop
vertex 17.3205080756888 89.9999999999999 -0.2
vertex 19.3185165257814 85.1763809020504 0.0
vertex 19.3185165257814 85.1763809020504 -0.2
endloop
endfacet
facet normal 0.923879532511287 0.382683432365089 0.0
outer loop
vertex 19.3185165257814 85.1763809020504 0.0
vertex 17.3205080756888 89.9999999999999 -0.2
vertex 17.3205080756888 89.9999999999999 0.0
endloop
endfacet
facet normal 0.793353340291235 0.608761429008721 0.0
outer loop
vertex 14.142135623731 94.1421356237309 -0.2
vertex 17.3205080756888 89.9999999999999 0.0
vertex 17.3205080756888 89.9999999999999 -0.2
endloop
endfacet
facet normal 0.793353340291235 0.608761429008721 0.0
outer loop
vertex 17.3205080756888 89.9999999999999 0.0
vertex 14.142135623731 94.1421356237309 -0.2
vertex 14.142135623731 94.1421356237309 0.0
endloop
endfacet
facet normal 0.608761429008721 0.793353340291235 0.0
outer loop
vertex 10.0 97.3205080756887 0.0
vertex 14.142135623731 94.1421356237309 -0.2
vertex 10.0 97.3205080756887 -0.2
endloop
endfacet
facet normal 0.608761429008721 0.793353340291235 0.0
outer loop
vertex 14.142135623731 94.1421356237309 -0.2
vertex 10.0 97.3205080756887 0.0
vertex 14.142135623731 94.1421356237309 0.0
endloop
endfacet
facet normal 0.382683432365092 0.923879532511286 0.0
outer loop
vertex 5.17638090205043 99.3185165257813 0.0
vertex 10.0 97.3205080756887 -0.2
vertex 5.17638090205043 99.3185165257813 -0.2
endloop
endfacet
facet normal 0.382683432365092 0.923879532511286 0.0
outer loop
vertex 10.0 97.3205080756887 -0.2
vertex 5.17638090205043 99.3185165257813 0.0
vertex 10.0 97.3205080756887 0.0
endloop
endfacet
facet normal 0.130526192220052 0.99144486137381 0.0
outer loop
vertex 3.67394039744206e-15 100.0 0.0
vertex 5.17638090205043 99.3185165257813 -0.2
vertex 3.67394039744206e-15 100.0 -0.2
endloop
endfacet
facet normal 0.130526192220052 0.99144486137381 0.0
outer loop
vertex 5.17638090205043 99.3185165257813 -0.2
vertex 3.67394039744206e-15 100.0 0.0
vertex 5.17638090205043 99.3185165257813 0.0
endloop
endfacet
facet normal -0.130526192220052 0.99144486137381 0.0
outer loop
vertex -5.17638090205041 99.3185165257813 0.0
vertex 3.67394039744206e-15 100.0 -0.2
vertex -5.17638090205041 99.3185165257813 -0.2
endloop
endfacet
facet normal -0.130526192220052 0.99144486137381 0.0
outer loop
vertex 3.67394039744206e-15 100.0 -0.2
vertex -5.17638090205041 99.3185165257813 0.0
vertex 3.67394039744206e-15 100.0 0.0
endloop
endfacet
facet normal -0.38268343236509 0.923879532511287 0.0
outer loop
vertex -9.99999999999998 97.3205080756887 0.0
vertex -5.17638090205041 99.3185165257813 -0.2
vertex -9.99999999999998 97.3205080756887 -0.2
endloop
endfacet
facet normal -0.38268343236509 0.923879532511287 0.0
outer loop
vertex -5.17638090205041 99.3185165257813 -0.2
vertex -9.99999999999998 97.3205080756887 0.0
vertex -5.17638090205041 99.3185165257813 0.0
endloop
endfacet
facet normal -0.608761429008719 0.793353340291236 0.0
outer loop
vertex -14.1421356237309 94.1421356237309 0.0
vertex -9.99999999999998 97.3205080756887 -0.2
vertex -14.1421356237309 94.1421356237309 -0.2
endloop
endfacet
facet normal -0.608761429008719 0.793353340291236 0.0
outer loop
vertex -9.99999999999998 97.3205080756887 -0.2
vertex -14.1421356237309 94.1421356237309 0.0
vertex -9.99999999999998 97.3205080756887 0.0
endloop
endfacet
facet normal -0.793353340291235 0.60876142900872 0.0
outer loop
vertex -14.1421356237309 94.1421356237309 0.0
vertex -17.3205080756888 90.0 -0.2
vertex -17.3205080756888 90.0 0.0
endloop
endfacet
facet normal -0.793353340291235 0.60876142900872 0.0
outer loop
vertex -17.3205080756888 90.0 -0.2
vertex -14.1421356237309 94.1421356237309 0.0
vertex -14.1421356237309 94.1421356237309 -0.2
endloop
endfacet
facet normal -0.923879532511286 0.382683432365091 0.0
outer loop
vertex -17.3205080756888 90.0 0.0
vertex -19.3185165257814 85.1763809020504 -0.2
vertex -19.3185165257814 85.1763809020504 0.0
endloop
endfacet
facet normal -0.923879532511286 0.382683432365091 0.0
outer loop
vertex -19.3185165257814 85.1763809020504 -0.2
vertex -17.3205080756888 90.0 0.0
vertex -17.3205080756888 90.0 -0.2
endloop
endfacet
facet normal -0.99144486137381 0.130526192220052 0.0
outer loop
vertex -19.3185165257814 85.1763809020504 0.0
vertex -20.0 80.0 -0.2
vertex -20.0 80.0 0.0
endloop
endfacet
facet normal -0.99144486137381 0.130526192220052 0.0
outer loop
vertex -20.0 80.0 -0.2
vertex -19.3185165257814 85.1763809020504 0.0
vertex -19.3185165257814 85.1763809020504 -0.2
endloop
endfacet
facet normal -0.99144486137381 -0.130526192220052 -0.0
outer loop
vertex -20.0 80.0 0.0
vertex -19.3185165257814 74.8236190979495 -0.2
vertex -19.3185165257814 74.8236190979495 0.0
endloop
endfacet
facet normal -0.99144486137381 -0.130526192220052 -0.0
outer loop
vertex -19.3185165257814 74.8236190979495 -0.2
vertex -20.0 80.0 0.0
vertex -20.0 80.0 -0.2
endloop
endfacet
facet normal -0.923879532511287 -0.382683432365089 -0.0
outer loop
vertex -19.3185165257814 74.8236190979495 0.0
vertex -17.3205080756888 70.0 -0.2
vertex -17.3205080756888 70.0 0.0
endloop
endfacet
facet normal -0.923879532511287 -0.382683432365089 -0.0
outer loop
vertex -17.3205080756888 70.0 -0.2
vertex -19.3185165257814 74.8236190979495 0.0
vertex -19.3185165257814 74.8236190979495 -0.2
endloop
endfacet
facet normal -0.793353340291236 -0.60876142900872 -0.0
outer loop
vertex -17.3205080756888 70.0 0.0
vertex -14.1421356237309 65.857864376269 -0.2
vertex -14.1421356237309 65.857864376269 0.0
endloop
endfacet
facet normal -0.793353340291236 -0.60876142900872 -0.0
outer loop
vertex -14.1421356237309 65.857864376269 -0.2
vertex -17.3205080756888 70.0 0.0
vertex -17.3205080756888 70.0 -0.2
endloop
endfacet
facet normal -0.608761429008721 -0.793353340291235 -0.0
outer loop
vertex -10.0 62.6794919243112 0.0
vertex -14.1421356237309 65.857864376269 -0.2
vertex -10.0 62.6794919243112 -0.2
endloop
endfacet
facet normal -0.608761429008721 -0.793353340291235 -0.0
outer loop
vertex -14.1421356237309 65.857864376269 -0.2
vertex -10.0 62.6794919243112 0.0
vertex -14.1421356237309 65.857864376269 0.0
endloop
endfacet
facet normal -0.38268343236509 -0.923879532511287 -0.0
outer loop
vertex -5.17638090205042 60.6814834742186 0.0
vertex -10.0 62.6794919243112 -0.2
vertex -5.17638090205042 60.6814834742186 -0.2
endloop
endfacet
facet normal -0.38268343236509 -0.923879532511287 -0.0
outer loop
vertex -10.0 62.6794919243112 -0.2
vertex -5.17638090205042 60.6814834742186 0.0
vertex -10.0 62.6794919243112 0.0
endloop
endfacet
facet normal 1.0 -0.0 -0.0
outer loop
vertex 100.0 60.0 -0.2
vertex 100.0 20.0 0.0
vertex 100.0 20.0 -0.2
endloop
endfacet
facet normal 1.0 -0.0 -0.0
outer loop
vertex 100.0 20.0 0.0
vertex 100.0 60.0 -0.2
vertex 100.0 60.0 0.0
endloop
endfacet
endsolid stackable
